<svg xmlns="http://www.w3.org/2000/svg" xmlns:xlink="http://www.w3.org/1999/xlink" viewBox="0 0 100 100.71"><defs><style>.cls-1{fill:none;}.cls-2{isolation:isolate;}.cls-3{fill:#1db1a7;}.cls-4{clip-path:url(#clip-path);}.cls-5{fill:#180900;}.cls-6{fill:#f8c1a6;}.cls-7{fill:#ececec;mix-blend-mode:multiply;}.cls-8{fill:#e0af97;}.cls-9{fill:#e64645;}.cls-10{fill:#422918;}</style><clipPath id="clip-path" transform="translate(0 0)"><circle class="cls-1" cx="50" cy="50" r="50" transform="translate(-7.39 91.31) rotate(-80.74)"/></clipPath></defs><title>avatar-02</title><g class="cls-2"><g id="Livello_1" data-name="Livello 1"><circle class="cls-3" cx="50" cy="50" r="50" transform="translate(-7.39 91.31) rotate(-80.74)"/><g class="cls-4"><path class="cls-5" d="M27.12,45.79c-.28.41-1.14,35.18,5,42.3H66.67s9.45-26.69,3-42.3H26.91" transform="translate(0 0)"/><rect class="cls-6" x="40.98" y="64.9" width="19.15" height="12.9"/><path class="cls-7" d="M45.62,74.24a26,26,0,0,0,9.16,1.86,30.12,30.12,0,0,0,5.35-.52V64.9H41v6.68A16.1,16.1,0,0,0,45.62,74.24Z" transform="translate(0 0)"/><path class="cls-6" d="M71.28,40.63c.06-.47.87-1.25,1.22-1.51a1.16,1.16,0,0,1,1.81.77A9.11,9.11,0,0,1,74.58,42,9.28,9.28,0,0,1,73.67,47a6.6,6.6,0,0,1-2.27,2.51.81.81,0,0,1-1.24-.66Z" transform="translate(0 0)"/><path class="cls-8" d="M71.12,41.66c0-.34.62-.89.87-1.08a.83.83,0,0,1,1.29.55,6.63,6.63,0,0,1,.2,1.54,6.74,6.74,0,0,1-.65,3.53A4.78,4.78,0,0,1,71.2,48a.58.58,0,0,1-.88-.47S71.11,41.66,71.12,41.66Z" transform="translate(0 0)"/><path class="cls-6" d="M29.34,40.63a3.66,3.66,0,0,0-1.22-1.51,1.16,1.16,0,0,0-1.81.77A9.67,9.67,0,0,0,26,42,9.47,9.47,0,0,0,26.94,47a6.71,6.71,0,0,0,2.28,2.51.81.81,0,0,0,1.24-.66Z" transform="translate(0 0)"/><path class="cls-8" d="M29.5,41.66c0-.34-.62-.89-.87-1.08-.57-.42-1.13,0-1.3.55a7.21,7.21,0,0,0-.19,1.54,6.74,6.74,0,0,0,.65,3.53A4.78,4.78,0,0,0,29.42,48a.58.58,0,0,0,.88-.47Z" transform="translate(0 0)"/><path class="cls-6" d="M71.91,42.17a32.46,32.46,0,0,1-3.48,15.55,30.94,30.94,0,0,1-9.17,10c-2.91,2.13-6,4.6-9.71,4.3-3.85-.32-6.84-3.59-9.64-6.15a33.38,33.38,0,0,1-9-13.3A30.85,30.85,0,0,1,29.2,42.17c0-17.47,9.56-28.46,21.35-28.46S71.91,24.7,71.91,42.17Z" transform="translate(0 0)"/><path class="cls-6" d="M79.69,83.64,58.89,77.4H42.21L21.42,83.64s-9.64,4.1-10.71,17.07H90.39C89.32,87.74,79.69,83.64,79.69,83.64Z" transform="translate(0 0)"/><path class="cls-9" d="M79.69,83.64l-11.5-3.45L50.55,97.81,32.87,80.21,21.42,83.64s-9.64,4.1-10.71,17.07H90.39C89.32,87.74,79.69,83.64,79.69,83.64Z" transform="translate(0 0)"/><path class="cls-10" d="M36.06,20.65S46.34,37,71.84,39.73c0,0,4.83-18.58-13.11-27.61C58.73,12.12,45,6.45,36.06,20.65Z" transform="translate(0 0)"/><path class="cls-10" d="M38.7,24s-6.64,4.29-9.53,16.28c0,0-3.09-22.59,12.9-25.41Z" transform="translate(0 0)"/><path class="cls-10" d="M64.76,37.85s6.84,43.53-4,55.86c0,0,13.82-2.06,14.51-21.09,0,0,2.46-38.87-6.9-52.29Z" transform="translate(0 0)"/><path class="cls-10" d="M35.5,93.71S19.58,91.82,24,42.86c0,0,1.1-27.18,17-27.81l-.92,10.32s-9.15,2.72-8,24.23C32.09,49.6,31.16,84.26,35.5,93.71Z" transform="translate(0 0)"/></g></g></g></svg>