<svg xmlns="http://www.w3.org/2000/svg" xmlns:xlink="http://www.w3.org/1999/xlink" viewBox="0 0 100 100"><defs><style>.cls-1{fill:none;}.cls-2{isolation:isolate;}.cls-3{fill:#7f482e;}.cls-4{clip-path:url(#clip-path);}.cls-5{fill:#f8c1a6;}.cls-6{fill:#ececec;}.cls-11,.cls-6{mix-blend-mode:multiply;}.cls-7{fill:#e0af97;}.cls-8{fill:#fff;}.cls-9{fill:#002537;}.cls-10{fill:#f8b133;}.cls-11{fill:#d9d9d9;}.cls-12{fill:#422918;}.cls-13{fill:#001b2d;}.cls-14{fill:#e8e8e8;}</style><clipPath id="clip-path" transform="translate(0 0)"><circle class="cls-1" cx="50" cy="50" r="50" transform="translate(-3.4 96.35) rotate(-85.95)"/></clipPath></defs><title>avatar-04</title><g class="cls-2"><g id="Livello_1" data-name="Livello 1"><circle class="cls-3" cx="50" cy="50" r="50" transform="translate(-3.4 96.35) rotate(-85.95)"/><g class="cls-4"><rect class="cls-5" x="40.18" y="63.8" width="19.15" height="12.9"/><path class="cls-6" d="M44.83,73.13A25.46,25.46,0,0,0,54,75a29.2,29.2,0,0,0,5.35-.51V63.8H40.18v6.67A15.92,15.92,0,0,0,44.83,73.13Z" transform="translate(0 0)"/><path class="cls-5" d="M70.89,39.91c.06-.47.89-1.23,1.25-1.49a1.19,1.19,0,0,1,1.84.76,9.41,9.41,0,0,1,.28,2.12,9.08,9.08,0,0,1-.93,4.88A6.65,6.65,0,0,1,71,48.66.83.83,0,0,1,69.75,48Z" transform="translate(0 0)"/><path class="cls-7" d="M70.72,40.92c0-.33.64-.88.89-1.06a.85.85,0,0,1,1.32.55,6.32,6.32,0,0,1,.2,1.51,6.49,6.49,0,0,1-.66,3.49,4.81,4.81,0,0,1-1.66,1.78.61.61,0,0,1-.91-.47Z" transform="translate(0 0)"/><path class="cls-5" d="M28.14,39.91c-.07-.47-.89-1.23-1.25-1.49a1.18,1.18,0,0,0-1.84.76,9.41,9.41,0,0,0-.28,2.12,9,9,0,0,0,.93,4.88A6.49,6.49,0,0,0,28,48.66.83.83,0,0,0,29.28,48Z" transform="translate(0 0)"/><path class="cls-7" d="M28.3,40.92c0-.33-.63-.88-.89-1.06a.85.85,0,0,0-1.32.55,6.87,6.87,0,0,0-.2,1.51,6.49,6.49,0,0,0,.67,3.49,4.65,4.65,0,0,0,1.66,1.78.6.6,0,0,0,.9-.47S28.31,40.93,28.3,40.92Z" transform="translate(0 0)"/><path class="cls-5" d="M71.53,41.43A31.24,31.24,0,0,1,68,56.79a30.92,30.92,0,0,1-9.34,9.86c-3,2.1-6.15,4.54-9.91,4.24s-7-3.54-9.82-6.07a32.94,32.94,0,0,1-9.16-13.14A29.7,29.7,0,0,1,28,41.43c0-17.26,9.75-28.12,21.77-28.12S71.53,24.17,71.53,41.43Z" transform="translate(0 0)"/><path class="cls-5" d="M83.19,82.54,59.33,76.3H40.18L16.32,82.54A20.46,20.46,0,0,0,4,99.6H95.48A20.46,20.46,0,0,0,83.19,82.54Z" transform="translate(0 0)"/><path class="cls-8" d="M83.19,82.54,59.33,76.3H40.18L16.32,82.54A20.46,20.46,0,0,0,4,99.6H95.48A20.46,20.46,0,0,0,83.19,82.54Z" transform="translate(0 0)"/><path class="cls-9" d="M83.19,82.54,65.53,77.92,49.76,99.6,34.15,77.87,16.32,82.54A20.46,20.46,0,0,0,4,99.6H95.48A20.46,20.46,0,0,0,83.19,82.54Z" transform="translate(0 0)"/><polygon class="cls-10" points="47.66 88.74 43.27 99.6 55.76 99.6 51.47 88.74 47.66 88.74"/><polygon class="cls-10" points="49.47 76.51 43.87 84.02 47.76 88.77 49.67 88.74 51.57 88.71 55.31 83.83 49.47 76.51"/><path class="cls-11" d="M53.21,83c-.72,1.42-2.05,3-3.86,2.63a3.11,3.11,0,0,1-2.29-4c.42-1.76,1.55-3.21,2.18-4.87L43.87,84l3.89,4.75,3.81-.06,3.74-4.88-1.58-2C53.57,82.25,53.4,82.65,53.21,83Z" transform="translate(0 0)"/><path class="cls-12" d="M28,39.31s3.2-19.44,13.17-17.53c0,0,9,5.6,16.52-.13,0,0,9.11-.31,14.11,17.66,0,0,1.25-19.17-12.51-26,0,0-12.73-5.87-23.62,2.87A24.63,24.63,0,0,0,28,39.31Z" transform="translate(0 0)"/><polygon class="cls-13" points="49.76 99.6 34.15 77.87 21.67 81.14 37.62 92.36 33.52 94.17 40.89 99.6 49.76 99.6"/><polygon class="cls-13" points="49.76 99.63 65.36 77.9 77.84 81.17 61.89 92.39 65.99 94.2 58.62 99.63 49.76 99.63"/><polygon class="cls-14" points="30.79 76.75 40.15 72.36 49.69 76.35 59.23 72.36 69.23 76.75 55.09 86.22 49.69 78.48 43.87 86.22 30.79 76.75"/></g></g></g></svg>