<svg xmlns="http://www.w3.org/2000/svg" xmlns:xlink="http://www.w3.org/1999/xlink" viewBox="0 0 100 100"><defs><style>.cls-1{fill:none;}.cls-2{isolation:isolate;}.cls-3{fill:#7b910f;}.cls-4{clip-path:url(#clip-path);}.cls-5{fill:#f8c1a6;}.cls-6{fill:#ececec;}.cls-11,.cls-6{mix-blend-mode:multiply;}.cls-7{fill:#e0af97;}.cls-8{fill:#fff;}.cls-9{fill:#244747;}.cls-10{fill:#e64645;}.cls-11{fill:#d9d9d9;}.cls-12{fill:#143333;}.cls-13{fill:#e8e8e8;}.cls-14{fill:#1d0d00;}.cls-15{fill:#251403;}</style><clipPath id="clip-path" transform="translate(0 0)"><circle class="cls-1" cx="50" cy="50" r="50"/></clipPath></defs><title>avatar-03</title><g class="cls-2"><g id="Livello_1" data-name="Livello 1"><circle class="cls-3" cx="50" cy="50" r="50"/><g class="cls-4"><rect class="cls-5" x="40.85" y="62.85" width="19.15" height="12.9"/><path class="cls-6" d="M45.49,72.18A25.51,25.51,0,0,0,54.65,74,29.2,29.2,0,0,0,60,73.53V62.85H40.85v6.67A15.87,15.87,0,0,0,45.49,72.18Z" transform="translate(0 0)"/><path class="cls-5" d="M70.41,39c.06-.47.84-1.23,1.18-1.49.76-.58,1.53,0,1.75.76a10,10,0,0,1,.26,2.12,9.43,9.43,0,0,1-.88,4.88,6.39,6.39,0,0,1-2.19,2.48.79.79,0,0,1-1.2-.65Z" transform="translate(0 0)"/><path class="cls-7" d="M70.25,40a2.59,2.59,0,0,1,.85-1.06c.54-.41,1.09,0,1.25.54A7.71,7.71,0,0,1,72.54,41a6.86,6.86,0,0,1-.63,3.49,4.74,4.74,0,0,1-1.57,1.78.57.57,0,0,1-.86-.47Z" transform="translate(0 0)"/><path class="cls-5" d="M29.94,39c-.06-.47-.84-1.23-1.18-1.49-.76-.58-1.52,0-1.74.76a10,10,0,0,0-.27,2.12,9.64,9.64,0,0,0,.88,4.88,6.5,6.5,0,0,0,2.2,2.48A.78.78,0,0,0,31,47.06Z" transform="translate(0 0)"/><path class="cls-7" d="M30.1,40c0-.33-.6-.88-.84-1.06-.55-.41-1.09,0-1.25.54A7,7,0,0,0,27.82,41a6.86,6.86,0,0,0,.63,3.49A4.57,4.57,0,0,0,30,46.24a.56.56,0,0,0,.85-.47Z" transform="translate(0 0)"/><path class="cls-5" d="M71,40.48a32.7,32.7,0,0,1-3.36,15.36,30.34,30.34,0,0,1-8.84,9.86C56,67.8,53,70.24,49.44,69.94s-6.59-3.54-9.3-6.07a33,33,0,0,1-8.67-13.14,31.1,31.1,0,0,1-1.66-10.25c0-17.26,9.22-28.12,20.6-28.12S71,23.22,71,40.48Z" transform="translate(0 0)"/><path class="cls-5" d="M83.86,81.59,60,75.35H40.85L17,81.59A20.46,20.46,0,0,0,4.7,98.65H96.15A20.46,20.46,0,0,0,83.86,81.59Z" transform="translate(0 0)"/><path class="cls-8" d="M83.86,81.59,60,75.35H40.85L17,81.59A20.46,20.46,0,0,0,4.7,98.65H96.15A20.46,20.46,0,0,0,83.86,81.59Z" transform="translate(0 0)"/><path class="cls-9" d="M83.86,81.59,66.2,77,50.42,98.65,34.82,76.92,17,81.59A20.46,20.46,0,0,0,4.7,98.65H96.15A20.46,20.46,0,0,0,83.86,81.59Z" transform="translate(0 0)"/><polygon class="cls-10" points="48.33 87.79 43.93 98.65 56.42 98.65 52.14 87.79 48.33 87.79"/><polygon class="cls-10" points="50.13 75.56 44.54 83.07 48.43 87.82 50.33 87.79 52.24 87.76 55.97 82.88 50.13 75.56"/><path class="cls-11" d="M53.87,82.08c-.71,1.42-2,3-3.85,2.63a3.12,3.12,0,0,1-2.3-4c.42-1.76,1.55-3.21,2.18-4.87l-5.36,7.2,3.89,4.75,3.81-.06L56,82.88l-1.58-2A10.31,10.31,0,0,1,53.87,82.08Z" transform="translate(0 0)"/><polygon class="cls-12" points="50.42 98.65 34.81 76.92 22.34 80.19 38.28 91.41 34.19 93.22 41.56 98.65 50.42 98.65"/><polygon class="cls-12" points="50.42 98.68 66.03 76.95 78.51 80.22 62.56 91.44 66.66 93.25 59.28 98.68 50.42 98.68"/><polygon class="cls-13" points="31.46 75.8 40.81 71.41 50.36 75.4 59.9 71.41 69.9 75.8 55.76 85.27 50.36 77.53 44.54 85.27 31.46 75.8"/><path class="cls-14" d="M62.48,62.58s5.18-4.89,6.32-9.21c0,0-6.1,5.51-8.23,4.92Z" transform="translate(0 0)"/><path class="cls-14" d="M39.8,64.05s-6-5.14-7.65-11.58c0,0,6.84,7.9,9,7.31Z" transform="translate(0 0)"/><path class="cls-15" d="M54.07,55.57a10.68,10.68,0,0,1,5.23,1.22C62.28,58.19,63,62,63,62a25.89,25.89,0,0,1-4.55,3.86C52.84,70.55,50.25,70,50.25,70a8.88,8.88,0,0,1-5.46-2L39.5,63.82a7.24,7.24,0,0,1,3.45-7c2.46-1.2,2.91-1,2.91-1s3.69-.43,4.59,1c0,0,.93-1.22,3.43-1.22" transform="translate(0 0)"/><path class="cls-5" d="M50.92,59.45a7.6,7.6,0,0,0-5.7.08s5.12,5.43,10.94.07C56.16,59.6,53,58.15,50.92,59.45Z" transform="translate(0 0)"/></g></g></g></svg>