<svg xmlns="http://www.w3.org/2000/svg" xmlns:xlink="http://www.w3.org/1999/xlink" viewBox="0 0 100 101.22"><defs><style>.cls-1{fill:none;}.cls-2{isolation:isolate;}.cls-3{fill:#f8b133;}.cls-4{clip-path:url(#clip-path);}.cls-5{fill:#f8c1a6;}.cls-6{fill:#ececec;}.cls-13,.cls-6{mix-blend-mode:multiply;}.cls-7{fill:#e0af97;}.cls-8{fill:#fff;}.cls-9{fill:#422918;}.cls-10{fill:#3c3c3b;}.cls-11{fill:#bc1621;}.cls-12{fill:#bd1622;}.cls-13{fill:#d9d9d9;}.cls-14{fill:#30302f;}.cls-15{fill:#e8e8e8;}</style><clipPath id="clip-path" transform="translate(0 0)"><circle class="cls-1" cx="50" cy="50" r="50" transform="translate(-6.09 93.05) rotate(-82.51)"/></clipPath></defs><title>avatar-02</title><g class="cls-2"><g id="Livello_1" data-name="Livello 1"><circle class="cls-3" cx="50" cy="50" r="50" transform="translate(-6.09 93.05) rotate(-82.51)"/><g class="cls-4"><rect class="cls-5" x="42.12" y="65.39" width="19.15" height="12.9"/><path class="cls-6" d="M46.76,74.72a25.73,25.73,0,0,0,9.16,1.86,29.21,29.21,0,0,0,5.35-.52V65.39H42.12v6.67A16.1,16.1,0,0,0,46.76,74.72Z" transform="translate(0 0)"/><path class="cls-5" d="M72.42,41.11c.07-.47.87-1.24,1.22-1.51.79-.58,1.58,0,1.81.78a9.58,9.58,0,0,1,.28,2.14,9.47,9.47,0,0,1-.91,4.94A6.74,6.74,0,0,1,72.54,50a.82.82,0,0,1-1.24-.67Z" transform="translate(0 0)"/><path class="cls-7" d="M72.26,42.14c0-.34.62-.89.87-1.08.56-.41,1.13,0,1.3.56a7.12,7.12,0,0,1,.19,1.53A6.72,6.72,0,0,1,74,46.68a4.71,4.71,0,0,1-1.63,1.8.58.58,0,0,1-.88-.47Z" transform="translate(0 0)"/><path class="cls-5" d="M30.48,41.11c-.06-.47-.87-1.24-1.22-1.51-.79-.58-1.58,0-1.81.78a9.58,9.58,0,0,0-.28,2.14,9.38,9.38,0,0,0,.92,4.94A6.63,6.63,0,0,0,30.36,50a.82.82,0,0,0,1.24-.67Z" transform="translate(0 0)"/><path class="cls-7" d="M30.65,42.14c0-.34-.63-.89-.88-1.08-.56-.41-1.13,0-1.3.56a7.12,7.12,0,0,0-.19,1.53,6.72,6.72,0,0,0,.65,3.53,4.71,4.71,0,0,0,1.63,1.8.58.58,0,0,0,.88-.47Z" transform="translate(0 0)"/><path class="cls-5" d="M73.05,42.66A32.42,32.42,0,0,1,69.57,58.2a31,31,0,0,1-9.16,10c-2.92,2.12-6,4.59-9.72,4.29-3.84-.32-6.84-3.59-9.64-6.14a33.49,33.49,0,0,1-9-13.31,30.83,30.83,0,0,1-1.72-10.37c0-17.48,9.56-28.47,21.35-28.47S73.05,25.18,73.05,42.66Z" transform="translate(0 0)"/><path class="cls-5" d="M85.13,84.12,61.27,77.88H42.12L18.26,84.12A20.48,20.48,0,0,0,6,101.19H97.42A20.48,20.48,0,0,0,85.13,84.12Z" transform="translate(0 0)"/><path class="cls-8" d="M85.13,84.12,61.27,77.88H42.12L18.26,84.12A20.48,20.48,0,0,0,6,101.19H97.42A20.48,20.48,0,0,0,85.13,84.12Z" transform="translate(0 0)"/><path class="cls-9" d="M36.09,22.54S43.25,33.2,61.27,34.43c0,0-1.51-.69-3.28-5.33A60.63,60.63,0,0,0,71.3,37.43L73,40.89s0-1.76,1.62-1.45c0,0,1.37-13.89-4.37-20.72a8.62,8.62,0,0,1,4.51,1.64S72.19,14.9,63.31,11.9c0,0,2.19-1.78,6.14-.55,0,0-5.23-2.46-14-2C55.44,9.3,38.22,8.61,36.09,22.54Z" transform="translate(0 0)"/><path class="cls-9" d="M38.87,25.08l-8.5,15.74a15,15,0,0,0-1.11-1.22S28.82,18,40.8,13.88Z" transform="translate(0 0)"/><path class="cls-10" d="M85.13,84.12,67.47,79.51,51.69,101.19,36.09,79.46,18.26,84.12A20.48,20.48,0,0,0,6,101.19H97.42A20.48,20.48,0,0,0,85.13,84.12Z" transform="translate(0 0)"/><polygon class="cls-11" points="49.6 90.33 45.2 101.19 57.7 101.19 53.41 90.33 49.6 90.33"/><polygon class="cls-12" points="51.41 78.1 45.81 85.6 49.7 90.36 51.6 90.32 53.51 90.29 57.24 85.42 51.41 78.1"/><path class="cls-13" d="M55.15,84.62c-.72,1.41-2,3-3.86,2.63a3.13,3.13,0,0,1-2.3-4c.42-1.75,1.56-3.21,2.18-4.86L45.81,85.6l3.89,4.75,3.81-.06,3.73-4.87-1.58-2A12.34,12.34,0,0,1,55.15,84.62Z" transform="translate(0 0)"/><polygon class="cls-14" points="51.69 101.19 36.09 79.46 23.61 82.72 39.55 93.95 35.46 95.76 42.83 101.19 51.69 101.19"/><polygon class="cls-14" points="51.69 101.22 67.3 79.49 79.78 82.75 63.83 93.98 67.93 95.79 60.55 101.22 51.69 101.22"/><polygon class="cls-15" points="32.73 78.34 42.09 73.95 51.63 77.93 61.17 73.95 71.17 78.34 57.03 87.81 51.63 80.07 45.81 87.81 32.73 78.34"/></g></g></g></svg>