<svg xmlns="http://www.w3.org/2000/svg" xmlns:xlink="http://www.w3.org/1999/xlink" viewBox="0 0 100 100"><defs><style>.cls-1{fill:#0c3853;}.cls-2{isolation:isolate;}.cls-3{clip-path:url(#clip-path);}.cls-4{fill:#f8c1a6;}.cls-5{fill:#ececec;}.cls-10,.cls-5{mix-blend-mode:multiply;}.cls-6{fill:#e0af97;}.cls-7{fill:#fff;}.cls-8{fill:#002537;}.cls-9{fill:#f8b133;}.cls-10{fill:#d9d9d9;}.cls-11{fill:#422918;}.cls-12{fill:#001b2d;}.cls-13{fill:#e8e8e8;}</style><clipPath id="clip-path" transform="translate(0 0)"><circle class="cls-1" cx="50" cy="50" r="50" transform="translate(-10.18 87.12) rotate(-76.67)"/></clipPath></defs><title>avatar-01</title><g class="cls-2"><g id="Livello_1" data-name="Livello 1"><circle class="cls-1" cx="50" cy="50" r="50" transform="translate(-10.18 87.12) rotate(-76.67)"/><g class="cls-3"><rect class="cls-4" x="40.43" y="64.15" width="19.15" height="12.9"/><path class="cls-5" d="M45.07,73.48a25.68,25.68,0,0,0,9.16,1.86,29,29,0,0,0,5.34-.52V64.15H40.43v6.67A16.1,16.1,0,0,0,45.07,73.48Z" transform="translate(0 0)"/><path class="cls-4" d="M71.13,40.25c.07-.46.89-1.23,1.25-1.49a1.19,1.19,0,0,1,1.84.77,9.4,9.4,0,0,1,.28,2.11,9,9,0,0,1-.93,4.88A6.52,6.52,0,0,1,71.25,49,.83.83,0,0,1,70,48.35Z" transform="translate(0 0)"/><path class="cls-6" d="M71,41.27c.05-.33.64-.88.9-1.07a.86.86,0,0,1,1.32.55,7,7,0,0,1,.2,1.52,6.61,6.61,0,0,1-.67,3.49,4.72,4.72,0,0,1-1.66,1.78.6.6,0,0,1-.9-.47Z" transform="translate(0 0)"/><path class="cls-4" d="M28.38,40.25c-.06-.46-.89-1.23-1.25-1.49a1.19,1.19,0,0,0-1.84.77A9.4,9.4,0,0,0,25,41.64a9,9,0,0,0,.93,4.88A6.68,6.68,0,0,0,28.26,49a.83.83,0,0,0,1.26-.66Z" transform="translate(0 0)"/><path class="cls-6" d="M28.55,41.27c-.05-.33-.64-.88-.89-1.07a.86.86,0,0,0-1.32.55,6.47,6.47,0,0,0-.2,1.52,6.5,6.5,0,0,0,.66,3.49,4.88,4.88,0,0,0,1.66,1.78.6.6,0,0,0,.9-.47Z" transform="translate(0 0)"/><path class="cls-4" d="M71.77,41.78a31.24,31.24,0,0,1-3.55,15.36A31.1,31.1,0,0,1,58.89,67c-3,2.09-6.16,4.54-9.91,4.24-3.92-.31-7-3.55-9.83-6.07A33,33,0,0,1,30,52a29.37,29.37,0,0,1-1.76-10.24C28.24,24.52,38,13.66,50,13.66S71.77,24.52,71.77,41.78Z" transform="translate(0 0)"/><path class="cls-4" d="M83.44,82.88,59.57,76.64H40.43L16.56,82.88A20.46,20.46,0,0,0,4.28,100H95.73A20.48,20.48,0,0,0,83.44,82.88Z" transform="translate(0 0)"/><path class="cls-7" d="M83.44,82.88,59.57,76.64H40.43L16.56,82.88A20.46,20.46,0,0,0,4.28,100H95.73A20.48,20.48,0,0,0,83.44,82.88Z" transform="translate(0 0)"/><path class="cls-8" d="M83.44,82.88,65.78,78.26,50,100,34.39,78.22,16.56,82.88A20.46,20.46,0,0,0,4.28,100H95.73A20.48,20.48,0,0,0,83.44,82.88Z" transform="translate(0 0)"/><polygon class="cls-9" points="47.91 89.08 43.51 99.95 56 99.95 51.72 89.08 47.91 89.08"/><polygon class="cls-9" points="49.71 76.86 44.12 84.36 48.01 89.11 49.91 89.08 51.81 89.05 55.55 84.18 49.71 76.86"/><path class="cls-10" d="M53.45,83.38c-.72,1.41-2.05,3-3.85,2.63a3.13,3.13,0,0,1-2.3-4c.42-1.75,1.55-3.21,2.18-4.86l-5.36,7.19L48,89.11l3.81-.06,3.73-4.87L54,82.2C53.82,82.6,53.64,83,53.45,83.38Z" transform="translate(0 0)"/><path class="cls-11" d="M72.08,39.65S68.53,56.26,56.61,61c0,0-1.48,3.69-6.42,3.69A6.71,6.71,0,0,1,43.76,61C31.84,56.26,28.29,39.65,28.29,39.65c-1,18.59,12.34,26.66,12.34,26.66,7.28,6,9.56,4.94,9.56,4.94s2.27,1,9.56-4.94C59.75,66.31,73,58.78,72.08,39.65Z" transform="translate(0 0)"/><path class="cls-11" d="M50,55.49S45.07,54,43.76,61a8.45,8.45,0,0,1-3.61-1.94S43.46,50.83,50,55.49Z" transform="translate(0 0)"/><path class="cls-11" d="M50.42,55.49S55.35,54,56.66,61a8.39,8.39,0,0,0,3.61-1.94S57,50.83,50.42,55.49Z" transform="translate(0 0)"/><path class="cls-11" d="M28.29,39.65s3.19-19.44,13.16-17.53c0,0,9,5.61,16.52-.13,0,0,9.11-.3,14.11,17.66,0,0,1.25-19.16-12.51-26,0,0-12.72-5.87-23.61,2.87A24.59,24.59,0,0,0,28.29,39.65Z" transform="translate(0 0)"/><polygon class="cls-12" points="50 99.95 34.39 78.22 21.91 81.48 37.86 92.71 33.77 94.52 41.14 99.95 50 99.95"/><polygon class="cls-12" points="50 99.98 65.61 78.25 78.09 81.51 62.14 92.74 66.23 94.55 58.86 99.98 50 99.98"/><polygon class="cls-13" points="31.04 77.1 40.39 72.71 49.94 76.69 59.48 72.71 69.48 77.1 55.34 86.57 49.94 78.83 44.12 86.57 31.04 77.1"/></g></g></g></svg>